<?xml version="1.0" encoding="UTF-8"?>
<svg version="1.1" xmlns="http://www.w3.org/2000/svg" width="1750" height="1750">
<path d="M0 0 C0.84079102 0.0015509 1.68158203 0.00310181 2.54785156 0.00469971 C54.68251097 0.11538126 54.68251097 0.11538126 78.25 2 C79.095625 2.06622559 79.94125 2.13245117 80.8125 2.20068359 C95.87974808 3.6094833 109.12910069 7.42300328 123.125 12.9375 C124.70720401 13.54876546 126.28988591 14.15879544 127.87304688 14.76757812 C166.1271021 29.52395179 166.1271021 29.52395179 183.58325195 38.94702148 C189.09959161 41.89952872 194.69301968 44.63025627 200.35830688 47.28552246 C224.87865219 58.78589224 245.81583639 72.98292064 265.640625 91.44140625 C273.38561608 98.55478709 281.5087395 105.14994168 289.89160156 111.49194336 C294.20572458 114.78254265 298.20848274 118.32914463 302.1953125 122.00390625 C304.43697139 124.01252139 306.74028063 125.85279166 309.125 127.6875 C321.12401607 137.18982639 331.86151591 148.33891161 342.6875 159.125 C343.5638208 159.99664795 344.4401416 160.8682959 345.34301758 161.76635742 C346.1811499 162.60658447 347.01928223 163.44681152 347.8828125 164.3125 C348.61773926 165.04855469 349.35266602 165.78460938 350.10986328 166.54296875 C352.09102575 168.62865203 353.97661766 170.74518584 355.85351562 172.92260742 C359.57732025 177.20592317 363.54135622 181.19715844 367.5859375 185.17578125 C369.1173262 186.69452162 370.64857174 188.21340635 372.1796875 189.73242188 C374.55596013 192.08397226 376.93381897 194.43387077 379.31445312 196.78100586 C387.87978118 205.23367891 396.20874354 213.57822357 403.5625 223.125 C404.70567388 224.50221186 405.85109756 225.8775634 407 227.25 C447.2779716 279.8067066 461.51799946 365.7599395 457.82421875 430 C457.78201391 430.7438797 457.73980907 431.4877594 457.6963253 432.25418091 C456.64409621 450.38829168 454.69059162 468.41250746 452.6718483 486.46003342 C452.16193661 491.03778444 451.66262653 495.61669075 451.1628418 500.19555664 C450.95877612 502.06416546 450.7546898 503.93277203 450.55058289 505.80137634 C450.39888925 507.19021688 450.39888925 507.19021688 450.24413109 508.60711479 C449.9382851 511.40297931 449.63122325 514.19870779 449.32380676 516.99440002 C448.05596965 528.5331058 446.82020809 540.07463994 445.625 551.62109375 C445.51309043 552.70185842 445.51309043 552.70185842 445.39892006 553.80445671 C445.03242445 557.34610149 444.666695 560.88782487 444.30142212 564.42959595 C441.82296525 588.45832441 439.22574925 612.47079845 436.42700195 636.46459961 C434.61827978 652.03620592 433.34830277 667.44026247 433.375 683.125 C433.37593658 683.84222229 433.37687317 684.55944458 433.37783813 685.29840088 C433.50271651 729.68743286 446.37405218 764.13181425 475.90332031 797.66455078 C486.10031573 809.3528983 494.9659625 822.22360624 503.99316406 834.82055664 C507.15766242 839.22489173 510.40470829 843.54441472 513.75 847.8125 C542.26023483 884.62668672 557.2410019 926.96790988 564.50854492 972.55004883 C564.62917801 973.30575668 564.7498111 974.06146454 564.87409973 974.84007263 C565.10947037 976.31565658 565.34401401 977.79137272 565.5776825 979.26722717 C566.16815595 982.93319767 566.84935554 986.53966044 567.73828125 990.14453125 C569.42232251 997.33689942 568.59116905 1004.42287534 567.375 1011.625 C567.24335449 1012.42325195 567.11170898 1013.22150391 566.97607422 1014.04394531 C559.5269719 1058.16748935 542.16924487 1096.54627527 518.2644043 1134.19604492 C516.11275297 1137.59583294 514.02793769 1141.01828324 512.03125 1144.51171875 C511.39521851 1145.62039307 511.39521851 1145.62039307 510.74633789 1146.75146484 C509.95542076 1148.13870715 509.17237787 1149.53049243 508.40014648 1150.92822266 C502.30791235 1161.59724933 493.66826909 1170.34455258 485 1178.9375 C484.10603516 1179.83919922 483.21207031 1180.74089844 482.29101562 1181.66992188 C477.33130089 1186.61512391 472.33218922 1191.14376167 466.5625 1195.125 C464.69539828 1190.12546719 463.8417463 1185.25400056 463.08203125 1180.00390625 C462.80665491 1178.17837862 462.53066982 1176.35294273 462.25415039 1174.52758789 C462.03977829 1173.09843552 462.03977829 1173.09843552 461.82107544 1171.64041138 C458.88917755 1152.23195742 455.3909328 1133.15867174 450.5625 1114.125 C450.25731445 1112.91392578 449.95212891 1111.70285156 449.63769531 1110.45507812 C443.11045684 1084.9007704 434.50881814 1060.1243037 423.5625 1036.125 C423.16562988 1035.25294922 422.76875977 1034.38089844 422.35986328 1033.48242188 C409.42612742 1005.26522742 393.57738018 978.66423119 373.96459961 954.56518555 C370.5625 950.33706429 370.5625 950.33706429 370.5625 948.125 C369.9025 948.125 369.2425 948.125 368.5625 948.125 C367.04509024 946.42596977 365.597372 944.66427277 364.1875 942.875 C361.97020687 940.07186688 359.8319248 937.38798803 357.2734375 934.890625 C355.5625 933.125 355.5625 933.125 355.5625 931.125 C354.5725 930.795 353.5825 930.465 352.5625 930.125 C351.1953125 928.69921875 351.1953125 928.69921875 349.6875 926.8125 C340.26424997 915.71930693 327.23495595 902.31110398 313.5625 897.125 C310.6775169 897.22839395 310.6775169 897.22839395 308.5625 898.125 C308.5625 898.785 308.5625 899.445 308.5625 900.125 C307.9025 900.455 307.2425 900.785 306.5625 901.125 C306.19185435 904.85911662 306.3106699 906.71286271 308.29296875 909.95703125 C309.50919922 911.43236328 309.50919922 911.43236328 310.75 912.9375 C311.65834843 914.06446276 312.56585468 915.19210469 313.47265625 916.3203125 C313.96523926 916.92391602 314.45782227 917.52751953 314.96533203 918.14941406 C317.93470284 921.82231969 320.80800374 925.56903586 323.6875 929.3125 C324.26781982 930.05540283 324.84813965 930.79830566 325.44604492 931.5637207 C325.98205322 932.25812256 326.51806152 932.95252441 327.0703125 933.66796875 C327.55129395 934.28696045 328.03227539 934.90595215 328.52783203 935.54370117 C329.5625 937.125 329.5625 937.125 329.5625 939.125 C330.2225 939.125 330.8825 939.125 331.5625 939.125 C333.05078125 940.8984375 333.05078125 940.8984375 334.875 943.5 C335.93847656 945.00240234 335.93847656 945.00240234 337.0234375 946.53515625 C337.42272461 947.10250488 337.82201172 947.66985352 338.23339844 948.25439453 C339.69190994 950.30713427 341.17558225 952.3399857 342.6640625 954.37109375 C349.29245165 963.42959805 355.67692604 972.56604423 361.5625 982.125 C361.92263184 982.70781738 362.28276367 983.29063477 362.65380859 983.89111328 C371.70324579 998.59595018 380.00778728 1013.68453667 387.60351562 1029.18798828 C388.5461342 1031.09194341 389.51084548 1032.98278218 390.484375 1034.87109375 C413.73626884 1080.14218052 430.3810724 1129.27178023 442.03182983 1178.72422791 C442.84514517 1182.16952671 443.6772136 1185.60558307 444.58496094 1189.02734375 C445.49635197 1192.46731716 446.34830362 1195.91684207 447.1875 1199.375 C447.4669043 1200.36145508 447.74630859 1201.34791016 448.03417969 1202.36425781 C448.67750021 1205.1998551 449.02564151 1207.2517694 448.5625 1210.125 C446.06831826 1213.51980687 443.00391695 1215.74172364 439.5625 1218.125 C438.86415039 1218.6523877 438.16580078 1219.17977539 437.44628906 1219.72314453 C435.45262988 1221.21814424 433.42598405 1222.64735977 431.375 1224.0625 C430.63507813 1224.57554688 429.89515625 1225.08859375 429.1328125 1225.6171875 C427.63742069 1226.64929097 426.13958694 1227.67786664 424.63916016 1228.70263672 C422.82548166 1229.94487642 421.02717237 1231.20610944 419.23046875 1232.47265625 C400.62669412 1245.11221214 379.30527387 1253.10591651 358.29492188 1260.75732422 C354.55659981 1262.12716201 350.83218021 1263.52999699 347.109375 1264.94140625 C285.59573358 1288.125 285.59573358 1288.125 266.5625 1288.125 C266.50287582 1287.56601013 266.44325165 1287.00702026 266.38182068 1286.43109131 C262.24922801 1247.87710569 257.48856477 1210.15531883 245.5625 1173.125 C245.23056641 1172.08939941 244.89863281 1171.05379883 244.55664062 1169.98681641 C236.25923057 1144.57700118 224.52881251 1120.71732899 211.046875 1097.68994141 C209.16421638 1094.43678162 207.35954611 1091.14435483 205.55908203 1087.84521484 C200.91880145 1079.34803047 195.91797901 1071.18764422 190.5625 1063.125 C189.94117188 1062.16851563 189.31984375 1061.21203125 188.6796875 1060.2265625 C182.61988874 1050.97205812 176.13677989 1042.01891062 169.5625 1033.125 C169.08377441 1032.4767627 168.60504883 1031.82852539 168.11181641 1031.16064453 C153.28708493 1010.7299286 153.28708493 1010.7299286 132.40234375 998.390625 C129.61662836 997.87769966 129.61662836 997.87769966 127.5625 999.125 C127.05984308 1001.91339304 127.05984308 1001.91339304 127.5625 1005.125 C129.81828168 1007.2191654 129.81828168 1007.2191654 131.66894531 1008.54516602 C139.31747253 1014.92649913 144.93344164 1024.25417779 150.375 1032.5 C151.06078125 1033.53656738 151.7465625 1034.57313477 152.453125 1035.64111328 C161.760483 1049.85129976 170.04584804 1064.27432643 176.72265625 1079.8984375 C178.42372049 1083.86370163 180.29397696 1087.71772987 182.25 1091.5625 C195.65844853 1118.08937529 208.16018192 1144.88791014 217.5625 1173.125 C217.9646875 1174.26066406 218.366875 1175.39632813 218.78125 1176.56640625 C222.7257177 1187.88146584 225.72469179 1199.45105158 228.75 1211.0390625 C229.43926099 1213.65692876 230.15048617 1216.26675023 230.875 1218.875 C235.12682269 1234.548318 237.65656576 1250.6195754 240.42443848 1266.60647583 C241.30782894 1271.70724937 242.23680722 1276.79704727 243.22924805 1281.87792969 C243.78821792 1285.64698369 243.6871721 1289.32250104 243.5625 1293.125 C237.84141853 1294.6310848 232.15660234 1295.78011257 226.31640625 1296.7109375 C225.00249908 1296.92382164 225.00249908 1296.92382164 223.66204834 1297.14100647 C220.81719024 1297.59936003 217.97132898 1298.05087446 215.125 1298.5 C213.65962296 1298.73144211 213.65962296 1298.73144211 212.16464233 1298.96755981 C150.41016123 1308.67832733 68.10736882 1314.37812951 13.23828125 1277.1484375 C-1.07113981 1266.32759062 -11.29172509 1252.84404685 -20.13867188 1237.37646484 C-21.58540833 1234.86860703 -23.06434814 1232.38139387 -24.546875 1229.89453125 C-31.18827721 1218.70528512 -37.49519588 1207.3819998 -43.5625 1195.875 C-49.39612565 1184.8113293 -55.52999429 1174.00125751 -62.08789062 1163.34814453 C-63.87934723 1160.39716698 -65.59604745 1157.40566205 -67.31591797 1154.41259766 C-70.87031586 1148.24635078 -74.57410642 1142.24858347 -78.6875 1136.4375 C-79.07566895 1135.88529785 -79.46383789 1135.3330957 -79.86376953 1134.76416016 C-81.95567636 1131.87947473 -84.18347296 1129.32787 -86.734375 1126.85546875 C-89.4375 1124.125 -89.4375 1124.125 -89.4375 1122.125 C-90.0975 1122.125 -90.7575 1122.125 -91.4375 1122.125 C-91.4375 1121.465 -91.4375 1120.805 -91.4375 1120.125 C-92.03046875 1119.856875 -92.6234375 1119.58875 -93.234375 1119.3125 C-95.45654035 1118.11473712 -96.88506608 1116.87689839 -98.6875 1115.125 C-107.43531923 1107.33296102 -118.03347703 1101.58422486 -128.5390625 1096.51367188 C-133.09947496 1094.311053 -137.58432607 1091.99769221 -142.05078125 1089.609375 C-157.15264614 1081.55214096 -172.14126045 1074.51560012 -188.4375 1069.125 C-189.47438965 1068.77888672 -190.5112793 1068.43277344 -191.57958984 1068.07617188 C-220.81615577 1058.42690563 -250.57945132 1053.18456954 -280.90087891 1048.42333984 C-285.31063938 1047.73026146 -289.71864301 1047.02690164 -294.125 1046.3125 C-295.22929352 1046.13362747 -295.22929352 1046.13362747 -296.355896 1045.95114136 C-309.3546092 1043.82403101 -322.15908086 1041.03510902 -334.99673462 1038.10296631 C-348.69767616 1034.98872386 -362.42336154 1032.54849757 -376.3125 1030.4375 C-392.53553636 1027.96363309 -408.5111059 1025.14745155 -424.4375 1021.125 C-425.54206543 1020.8465625 -426.64663086 1020.568125 -427.78466797 1020.28125 C-463.33919835 1011.21168154 -493.49730632 997.86116822 -523.9140625 977.16796875 C-527.12481675 974.98888763 -530.3711666 972.87847692 -533.6484375 970.80078125 C-542.58268493 965.13051222 -550.94209899 959.65050302 -558.4375 952.125 C-559.30761719 951.34382813 -559.30761719 951.34382813 -560.1953125 950.546875 C-568.82808563 942.59669324 -575.28638092 932.16282237 -581.3125 922.1875 C-586.14614933 914.21906124 -591.8666253 907.17647916 -597.84130859 900.04345703 C-605.52709261 890.80593932 -613.04325342 881.30739962 -619.4375 871.125 C-619.81696777 870.52349121 -620.19643555 869.92198242 -620.58740234 869.30224609 C-648.03553221 824.52926752 -655.90070793 764.74442297 -660.17089844 713.32861328 C-660.34191122 711.27364105 -660.52628018 709.21971124 -660.72753906 707.16748047 C-661.70021229 696.54197061 -661.5912792 685.90966589 -661.5625 675.25 C-661.5609491 674.23432953 -661.55939819 673.21865906 -661.55780029 672.17221069 C-661.38217043 573.86291018 -641.6829387 486.61695175 -595.39941406 399.62646484 C-592.79719532 394.73241248 -590.24524147 389.8144347 -587.72265625 384.87890625 C-580.06768429 369.91315003 -572.22183769 355.12058789 -563.82470703 340.55273438 C-562.55657803 338.33339704 -561.31577347 336.10222695 -560.08984375 333.859375 C-547.84800367 311.49373621 -533.17764658 290.46289391 -516.88916016 270.87207031 C-514.8913566 268.46771743 -512.91445936 266.04650416 -510.9375 263.625 C-510.23238281 262.76519531 -509.52726563 261.90539062 -508.80078125 261.01953125 C-506.99982708 258.81373449 -505.20626758 256.60273901 -503.41796875 254.38671875 C-497.60234422 247.18704544 -491.72643634 240.05754178 -485.66992188 233.05883789 C-482.74786759 229.67695571 -479.91183174 226.24526 -477.125 222.75 C-464.8249347 207.63024464 -450.77224609 192.63120352 -435.46875 180.5234375 C-432.38416976 178.08280313 -429.35376574 175.58559607 -426.32641602 173.07470703 C-418.13583851 166.2857111 -409.86114341 159.62230635 -401.4375 153.125 C-400.65890625 152.52429688 -399.8803125 151.92359375 -399.078125 151.3046875 C-376.67638512 134.05672213 -353.92054089 117.69701563 -329.52832031 103.35742188 C-327.15728992 101.9598318 -324.79342584 100.5505118 -322.4296875 99.140625 C-240.27816922 50.2251875 -149.55778998 13.30166617 0 0 Z M236.84375 274.41796875 C227.12740999 284.75223389 227.28266685 301.93961429 225.3828125 315.42578125 C225.08558458 317.50861583 224.78795826 319.59139358 224.48995972 321.67411804 C223.86625689 326.04177552 223.24636248 330.40995064 222.62939453 334.77856445 C221.85678791 340.24814307 221.07638287 345.71657091 220.29333878 351.18466377 C217.25581794 372.41034817 214.29904205 393.64412312 211.6171875 414.91796875 C211.50960239 415.76352137 211.40201729 416.60907398 211.29117203 417.4802494 C210.99168016 419.84332948 210.69762665 422.20701213 210.40576172 424.57104492 C210.31904079 425.25394026 210.23231987 425.93683559 210.14297104 426.64042473 C209.67633289 430.49186478 209.48163728 434.24651585 209.5625 438.125 C208.60730469 437.67769531 207.65210938 437.23039063 206.66796875 436.76953125 C198.98620652 433.17606274 191.29027142 429.61869307 183.5625 426.125 C181.7289873 425.29206138 179.89565595 424.45872347 178.0625 423.625 C177.14855469 423.20992187 176.23460937 422.79484375 175.29296875 422.3671875 C173.52365953 421.56226571 171.75536278 420.75511314 169.98828125 419.9453125 C164.55365879 417.45952106 159.09767039 415.02560253 153.625 412.625 C153.00536377 412.35252441 152.38572754 412.08004883 151.74731445 411.79931641 C147.78840849 410.06840803 143.80889344 408.39422873 139.81640625 406.7421875 C134.68733903 404.6118191 129.60503569 402.39051527 124.5324707 400.12939453 C113.32426839 395.13402157 102.07173451 390.38180134 90.5625 386.125 C89.59449463 385.76583496 89.59449463 385.76583496 88.60693359 385.39941406 C75.45748707 379.76387751 75.45748707 379.76387751 61.5625 378.125 C59.23930131 380.99228634 59.23930131 380.99228634 59.625 384.5 C61.32402275 391.06955464 67.21585357 394.55473747 72.5 398.375 C73.48190308 399.08897949 73.48190308 399.08897949 74.48364258 399.81738281 C91.48606516 412.06615438 109.78750754 422.13701538 128.375 431.75 C137.1671685 436.31532991 145.88685319 440.99799916 154.5715332 445.76416016 C161.12411825 449.35537357 167.71779484 452.85844003 174.3425293 456.31445312 C178.7764948 458.63524344 183.18114227 461.00234147 187.56640625 463.4140625 C188.57445312 463.96835937 189.5825 464.52265625 190.62109375 465.09375 C192.59323282 466.18111927 194.56335796 467.2721508 196.53125 468.3671875 C197.41941406 468.85703125 198.30757812 469.346875 199.22265625 469.8515625 C200.40807007 470.51019287 200.40807007 470.51019287 201.61743164 471.18212891 C203.50219141 472.27040048 203.50219141 472.27040048 205.5625 472.125 C205.43198242 473.1960498 205.30146484 474.26709961 205.16699219 475.37060547 C200.43810018 514.43549596 196.22429456 553.74822349 195.5625 593.125 C194.9025 593.125 194.2425 593.125 193.5625 593.125 C192.9025 591.805 192.2425 590.485 191.5625 589.125 C190.29790561 592.91878317 191.01796174 594.87781596 191.9375 598.75 C192.91019048 602.96789997 193.72250247 606.99349995 194 611.3125 C194.17928538 615.15175813 194.17928538 615.15175813 196.625 617.1875 C198.70838364 618.45239912 198.70838364 618.45239912 201.75 617.3125 C206.34209975 615.27977979 207.58764252 612.07492754 209.37890625 607.55859375 C218.75960144 580.34528987 220.49901558 551.45211931 223.08209229 522.96746826 C223.4724141 518.6815796 223.87140004 514.39649713 224.26953125 510.11132812 C225.04205745 501.78329294 225.80542204 493.45445373 226.5625 485.125 C230.36355988 486.35137847 233.58151596 487.58133161 236.9375 489.75 C249.12733538 497.25283459 262.43000655 503.02070938 275.37255859 509.09179688 C277.28123491 509.99230057 279.18232685 510.90884518 281.08203125 511.828125 C298.63765304 520.24828353 316.82657051 527.54646815 335.125 534.1875 C336.59332275 534.72383057 336.59332275 534.72383057 338.09130859 535.27099609 C351.5918202 540.55476353 351.5918202 540.55476353 365.5625 541.125 C368.81725017 538.37480717 371.30270036 535.31131391 371.81640625 530.98828125 C371.42818894 526.82881006 370.19835133 523.34659607 367.5625 520.125 C365.50324861 519.40117533 365.50324861 519.40117533 363.5625 519.125 C363.2325 518.465 362.9025 517.805 362.5625 517.125 C360.87069359 515.99435561 359.13547923 514.92832282 357.3828125 513.89453125 C356.30773438 513.25580078 355.23265625 512.61707031 354.125 511.95898438 C352.990625 511.29189453 351.85625 510.62480469 350.6875 509.9375 C337.99583032 502.43448351 337.99583032 502.43448351 331.8046875 498.44921875 C327.85615623 495.91438127 323.85981195 493.551432 319.73876953 491.30957031 C317.52707097 490.10571554 315.33917559 488.86557008 313.15234375 487.6171875 C302.08395407 481.36357111 290.79286961 475.90311921 279.203125 470.6875 C272.52280925 467.67577237 265.98168588 464.41939081 259.45556641 461.08984375 C256.06027087 459.35935523 252.65611465 457.64657661 249.25 455.9375 C248.58806641 455.60532471 247.92613281 455.27314941 247.24414062 454.9309082 C241.74631816 452.18681238 236.17939784 449.6161458 230.5625 447.125 C231.13382241 436.38708347 231.88938634 425.68371372 232.87319756 414.97582245 C233.0941029 412.57127616 233.31171975 410.16645 233.52857971 407.76153564 C233.83783144 404.33350041 234.14815508 400.9055648 234.459198 397.47769165 C240.26505191 335.40816925 240.26505191 335.40816925 241.5625 273.125 C238.60359977 272.82441913 238.60359977 272.82441913 236.84375 274.41796875 Z M-136.375 512.75 C-137.62627686 513.10118896 -138.87755371 513.45237793 -140.16674805 513.81420898 C-160.73573673 519.68303185 -181.45726652 526.30617489 -199.7890625 537.546875 C-202.60687864 539.22592768 -205.48916886 540.68974202 -208.4375 542.125 C-207.1175 544.435 -205.7975 546.745 -204.4375 549.125 C-204.9428125 549.53492188 -205.448125 549.94484375 -205.96875 550.3671875 C-206.6184375 550.90601563 -207.268125 551.44484375 -207.9375 552 C-208.5871875 552.53367187 -209.236875 553.06734375 -209.90625 553.6171875 C-210.4115625 554.11476563 -210.916875 554.61234375 -211.4375 555.125 C-211.4375 555.785 -211.4375 556.445 -211.4375 557.125 C-211.97890625 557.3415625 -212.5203125 557.558125 -213.078125 557.78125 C-216.25395344 559.58999997 -218.64478081 562.04223799 -221.1875 564.625 C-221.69410156 565.12386719 -222.20070313 565.62273438 -222.72265625 566.13671875 C-225.56555599 568.65561637 -225.56555599 568.65561637 -226.4375 572.125 C-227.0975 572.125 -227.7575 572.125 -228.4375 572.125 C-229.87450222 573.467554 -229.87450222 573.467554 -231.375 575.3125 C-231.99246094 576.04082031 -232.60992187 576.76914062 -233.24609375 577.51953125 C-233.96925781 578.37933594 -234.69242187 579.23914063 -235.4375 580.125 C-236.32307016 581.15073235 -237.20985513 582.17541675 -238.09765625 583.19921875 C-243.62124884 589.59868983 -248.73304353 596.09029873 -253.4375 603.125 C-254.07171875 604.011875 -254.7059375 604.89875 -255.359375 605.8125 C-272.86065555 630.77556683 -284.07895237 665.23202019 -279.5390625 695.8046875 C-275.0814003 719.81975604 -264.60175328 744.03374886 -249.4375 763.125 C-247.93428896 765.14344592 -246.43440798 767.16437522 -244.9375 769.1875 C-238.83222592 777.2859048 -232.77078061 785.10106373 -225.4375 792.125 C-224.261875 793.3315625 -224.261875 793.3315625 -223.0625 794.5625 C-222.19625 795.408125 -221.33 796.25375 -220.4375 797.125 C-219.86128906 797.69734375 -219.28507812 798.2696875 -218.69140625 798.859375 C-194.23232554 821.97759874 -156.81287525 831.91629572 -123.875 832.625 C-105.4690998 831.88476271 -88.51083412 828.29326789 -71.90234375 820.23828125 C-69.4375 819.125 -69.4375 819.125 -66.546875 818.2109375 C-50.85889312 812.73196895 -32.52537344 800.23154733 -21.4375 788.125 C-21.1075 787.135 -20.7775 786.145 -20.4375 785.125 C-19.1087015 784.44933975 -17.7746867 783.78390359 -16.4375 783.125 C8.87978784 757.34739783 22.74050047 718.26574476 22.6015625 682.56640625 C21.40571529 636.00341836 4.22222852 574.83981809 -29.4375 541.125 C-30.31792969 540.23296875 -31.19835937 539.3409375 -32.10546875 538.421875 C-39.71613645 530.95882238 -48.19534575 525.3785107 -57.4375 520.125 C-58.49195313 519.52558594 -59.54640625 518.92617188 -60.6328125 518.30859375 C-67.9446117 514.41871658 -75.42384523 512.1308362 -83.4375 510.125 C-84.58798828 509.80208984 -84.58798828 509.80208984 -85.76171875 509.47265625 C-102.90598059 504.9988203 -119.65058554 508.00253518 -136.375 512.75 Z M189.5625 585.125 C190.5625 587.125 190.5625 587.125 190.5625 587.125 Z M190.5625 587.125 C191.5625 589.125 191.5625 589.125 191.5625 589.125 Z " fill="#0D0B0B" transform="translate(722.4375,274.875)"/>
<path d="M0 0 C28.42988825 28.6802022 38.94255972 72.11173446 39.21484375 111.30078125 C39.1435598 121.47136802 38.32010425 131.06442466 35.83984375 140.92578125 C35.63584961 141.75416504 35.43185547 142.58254883 35.22167969 143.43603516 C29.78938586 165.01892601 21.10049966 188.0275485 2.83984375 201.92578125 C1.98777344 202.59738281 1.13570312 203.26898437 0.2578125 203.9609375 C-28.65753478 225.93321457 -65.20577736 239.71352287 -101.7265625 235.4609375 C-125.00616529 232.14283398 -148.1358488 220.08865791 -164.16015625 202.92578125 C-165.02640625 202.05953125 -165.89265625 201.19328125 -166.78515625 200.30078125 C-167.96078125 199.12515625 -167.96078125 199.12515625 -169.16015625 197.92578125 C-170.55234375 196.59546875 -170.55234375 196.59546875 -171.97265625 195.23828125 C-174.16015625 192.92578125 -174.16015625 192.92578125 -174.16015625 190.92578125 C-174.82015625 190.92578125 -175.48015625 190.92578125 -176.16015625 190.92578125 C-179.16015625 187.46424279 -179.16015625 187.46424279 -179.16015625 184.92578125 C-179.82015625 184.92578125 -180.48015625 184.92578125 -181.16015625 184.92578125 C-182.44921875 183.46484375 -182.44921875 183.46484375 -183.78515625 181.55078125 C-184.23117187 180.92429687 -184.6771875 180.2978125 -185.13671875 179.65234375 C-186.16015625 177.92578125 -186.16015625 177.92578125 -186.16015625 175.92578125 C-186.82015625 175.92578125 -187.48015625 175.92578125 -188.16015625 175.92578125 C-189.79964969 173.74994795 -191.30506795 171.58237547 -192.78515625 169.30078125 C-193.22811035 168.6243457 -193.67106445 167.94791016 -194.12744141 167.25097656 C-208.70856144 144.76455607 -215.6879784 122.93573753 -210.61181641 96.01806641 C-209.11230175 89.22694115 -207.21669923 82.56708316 -205.16015625 75.92578125 C-204.91604004 75.13123535 -204.67192383 74.33668945 -204.42041016 73.51806641 C-195.53175236 45.20038096 -178.63103231 23.34927585 -157.97265625 2.48828125 C-157.22935059 1.73554932 -156.48604492 0.98281738 -155.72021484 0.20727539 C-155.02621582 -0.48245361 -154.3322168 -1.17218262 -153.6171875 -1.8828125 C-152.9981958 -2.49954834 -152.3792041 -3.11628418 -151.74145508 -3.75170898 C-150.16015625 -5.07421875 -150.16015625 -5.07421875 -148.16015625 -5.07421875 C-148.16015625 -5.73421875 -148.16015625 -6.39421875 -148.16015625 -7.07421875 C-146.17509111 -8.7876434 -144.19011476 -10.37701006 -142.09765625 -11.94921875 C-141.53626953 -12.38363281 -140.97488281 -12.81804688 -140.39648438 -13.265625 C-129.10422648 -21.86064644 -117.47426879 -23.75008901 -103.58984375 -25.60546875 C-100.28843 -26.05668703 -97.00943638 -26.59026142 -93.72265625 -27.13671875 C-57.85690573 -32.57484699 -26.50444349 -25.69115404 0 0 Z " fill="#0D0B0B" transform="translate(678.16015625,842.07421875)"/>
<path d="M0 0 C1.47008117 0.68361799 2.92581968 1.39812407 4.375 2.125 C5.18710938 2.51945313 5.99921875 2.91390625 6.8359375 3.3203125 C10.55051369 6.20346731 10.88677936 10.22773312 11.54663086 14.72851562 C11.69277098 16.120403 11.8318184 17.51304806 11.96484375 18.90625 C12.04273132 19.65985809 12.1206189 20.41346619 12.2008667 21.18991089 C12.36649278 22.79630244 12.5292316 24.40299392 12.68930054 26.00994873 C13.1067723 30.19821763 13.54503356 34.38428913 13.984375 38.5703125 C14.07035446 39.39254303 14.15633392 40.21477356 14.24491882 41.06192017 C14.92870492 47.51934521 15.75719235 53.94832468 16.6875 60.375 C18.09774773 70.27433191 18.98723416 80.10725278 19.03125 90.1171875 C19.21710827 105.5501576 22.31112606 119.32463796 27 134 C27.2273584 134.71430176 27.4547168 135.42860352 27.68896484 136.16455078 C32.04543001 149.43116701 39.29444105 166.13415853 51.67578125 173.6171875 C55.89086806 175.37058436 60.1201812 176.36543931 64.5625 177.375 C70.49732341 178.77983821 76.15992133 180.2908506 81.8125 182.625 C87.59985378 185.01461704 93.3494981 186.20499212 99.4921875 187.2265625 C103.29248595 188.06449022 106.48896808 189.33001962 110 191 C111.39798828 191.59554687 111.39798828 191.59554687 112.82421875 192.203125 C116.00039206 194.82617657 116.25620294 197.86655046 116.8125 201.75 C116.93302734 202.4409375 117.05355469 203.131875 117.17773438 203.84375 C117.51467067 205.89232268 117.761541 207.93795719 118 210 C118.18949219 211.20011719 118.37898438 212.40023437 118.57421875 213.63671875 C117.9221003 217.45626965 117.49195781 217.82924344 114.5625 220.09765625 C113.05768237 221.110157 111.5358866 222.09777921 110 223.0625 C108.49921027 224.05218889 106.9992074 225.04307205 105.5 226.03515625 C104.74887939 226.51863525 103.99775879 227.00211426 103.22387695 227.50024414 C101.02368335 228.98402824 98.98535612 230.5879827 96.91796875 232.25 C93.20376982 235.06932717 89.93730452 236.08616782 85.3125 236.9375 C78.39964885 238.36027572 71.71129207 240.18833512 65 242.375 C64.14059814 242.64304443 63.28119629 242.91108887 62.39575195 243.18725586 C41.92058359 249.97926086 30.19795524 268.73409786 20.92236328 287.13818359 C11.38723496 306.52417297 5.10683437 327.26742841 -0.61767578 348.04785156 C-3.5772056 358.6098945 -5.73469288 365.28008326 -15.5 371 C-16.25925781 371.47566406 -17.01851562 371.95132812 -17.80078125 372.44140625 C-24.52635931 376.57569329 -24.52635931 376.57569329 -28 377 C-31.54293776 375.88698561 -33.72656244 373.89604608 -36 371 C-37.68607154 366.35637096 -38.56510673 361.68131648 -39.39416504 356.82019043 C-40.12173354 352.56751324 -40.96043563 348.33627469 -41.78515625 344.1015625 C-41.95639008 343.20800049 -42.1276239 342.31443848 -42.30404663 341.39379883 C-44.37595727 330.74573681 -47.05841093 320.25524292 -49.75 309.75 C-50.66296261 306.18267361 -51.5744474 302.61497672 -52.484375 299.046875 C-52.701008 298.20234772 -52.91764099 297.35782043 -53.14083862 296.48770142 C-54.39857052 291.5386111 -55.54185926 286.57863782 -56.59983826 281.58319092 C-58.01335979 274.91388221 -59.38887687 268.5284012 -62.6875 262.5 C-63.20123169 261.5255896 -63.20123169 261.5255896 -63.7253418 260.53149414 C-71.44955536 246.46856834 -83.37958607 238.18209272 -98.61572266 233.65332031 C-105.95917821 231.64112626 -113.3977491 229.98776453 -120.828125 228.33203125 C-121.87693848 228.09806641 -122.92575195 227.86410156 -124.00634766 227.62304688 C-125.87206459 227.23474891 -127.74679529 226.88521506 -129.63037109 226.59570312 C-136.69683917 225.48428076 -142.04485913 222.55553471 -148.125 218.875 C-149.08148437 218.31167969 -150.03796875 217.74835938 -151.0234375 217.16796875 C-153.35685929 215.7912499 -155.68170249 214.4019845 -158 213 C-158.02887512 209.35418313 -158.04675585 205.70839537 -158.0625 202.0625 C-158.07087891 201.02158203 -158.07925781 199.98066406 -158.08789062 198.90820312 C-158.09272461 197.42416992 -158.09272461 197.42416992 -158.09765625 195.91015625 C-158.10289307 194.99371338 -158.10812988 194.07727051 -158.11352539 193.13305664 C-158 191 -158 191 -157 190 C-155.03855825 190.09530516 -153.08022177 190.25462129 -151.125 190.4375 C-130.21532108 192.0344714 -111.77865274 191.05818528 -93.203125 180.24609375 C-91 179 -91 179 -88.13671875 177.73046875 C-84.29059037 175.60863205 -81.60000486 173.009163 -78.5625 169.875 C-77.9955542 169.30112549 -77.4286084 168.72725098 -76.84448242 168.13598633 C-72.97719102 164.16562627 -69.47974339 160.03852422 -66.26953125 155.51171875 C-65.64111328 154.76341797 -65.64111328 154.76341797 -65 154 C-64.34 154 -63.68 154 -63 154 C-62.67 154.66 -62.34 155.32 -62 156 C-50.72516725 134.70829803 -40.08725142 113.32357699 -31 91 C-30.70867187 90.31848877 -30.41734375 89.63697754 -30.1171875 88.93481445 C-28.48912694 84.95527237 -27.73899011 81.57029953 -27.58569336 77.22070312 C-27.03139835 63.26068064 -21.8074169 50.34656258 -17.19682312 37.32025146 C-15.52563866 32.57930361 -13.9702318 27.81371155 -12.484375 23.01171875 C-12.09515869 21.77357422 -11.70594238 20.53542969 -11.30493164 19.25976562 C-10.5781323 16.93629437 -9.86557855 14.60830254 -9.16967773 12.27539062 C-6.45737887 3.77689827 -6.45737887 3.77689827 -2.73828125 1.26953125 C-1.38283203 0.64111328 -1.38283203 0.64111328 0 0 Z " fill="#0D0B0B" transform="translate(1603,650)"/>
<path d="M0 0 C2.875 0.125 2.875 0.125 6 1 C9.06411853 4.9342687 9.72324924 8.9973918 10.375 13.8125 C11.12459637 19.03403346 11.99758251 24.1786572 13.23486328 29.30883789 C16.88121071 44.56238793 17.63784189 58.98785411 17.5 74.625 C17.30032954 97.34815254 17.76590887 122.98775996 33.046875 141.4765625 C34.34761456 142.78234369 35.68619352 144.05196268 37.06640625 145.2734375 C39.0993587 147.08872029 40.76586296 149.02516059 42.5 151.125 C47.46100771 156.85097035 52.61899889 160.77172708 59.83154297 163.11547852 C62.22035123 164.08988206 64.06487752 165.33180016 66.1640625 166.828125 C70.71970404 169.92635225 75.37320898 172.11966201 80.4375 174.25 C90.33339647 178.54414562 99.66914403 183.60207728 109 189 C108.39091573 194.32209558 107.6278134 199.5190263 106.4375 204.75 C106.03337891 206.66039062 106.03337891 206.66039062 105.62109375 208.609375 C103.69580905 212.63623553 102.25465749 213.58974681 98.25463867 215.27929688 C94.52260522 216.4722544 90.82171272 216.95248742 86.9375 217.375 C68.97210466 219.74976531 51.92475874 224.23229699 36 233 C35.38382813 233.33821777 34.76765625 233.67643555 34.1328125 234.02490234 C-0.48551844 253.3862811 -13.38962582 302.21514308 -24.88964844 337.58911133 C-31.95332164 359.30221443 -31.95332164 359.30221443 -36 362 C-41.51701518 362.76981607 -45.37650822 360.74761206 -50 358 C-51.95720472 356.04279528 -51.17521836 353.02698052 -51.23901367 350.41186523 C-52.00661632 320.64877367 -58.21442497 291.41387143 -72.0625 264.9375 C-72.37880371 264.32986816 -72.69510742 263.72223633 -73.02099609 263.09619141 C-74.63369469 260.11985644 -76.32187846 257.62497186 -78.53125 255.05078125 C-81.32420039 251.59936628 -82.80774716 248.33341729 -84.4375 244.25 C-90.38564808 230.10597932 -97.70427715 217.85549474 -112 211 C-115.25763027 209.7017562 -118.53747969 208.48633507 -121.83203125 207.28515625 C-125.71432801 205.71021712 -129.07028744 203.66341389 -132.57421875 201.38671875 C-135.16749297 199.9042512 -137.649216 199.11869384 -140.5 198.25 C-143.56689517 197.11375626 -144.68609773 196.66108039 -146.10546875 193.671875 C-146.99807872 189.57425606 -147.44259899 186.00721942 -146 182 C-143.39056445 179.04721767 -141.7634889 177.2544963 -138 176 C-137.690625 175.360625 -137.38125 174.72125 -137.0625 174.0625 C-135.7657662 171.54531085 -134.5778263 171.03113052 -132 170 C-132 169.34 -132 168.68 -132 168 C-131.34 168 -130.68 168 -130 168 C-130 167.34 -130 166.68 -130 166 C-129.36835937 166.04640625 -128.73671875 166.0928125 -128.0859375 166.140625 C-106.9374322 166.99387882 -84.28146099 154.6662382 -68.8125 140.8125 C-59.62511651 132.25132126 -51.98006555 122.01926746 -46 111 C-45.68434082 110.42072754 -45.36868164 109.84145508 -45.04345703 109.24462891 C-42.65515224 104.85055194 -40.32001126 100.43047311 -38 96 C-37.39478516 94.87078125 -37.39478516 94.87078125 -36.77734375 93.71875 C-33.63115056 87.70659134 -31.31796831 81.36767458 -29 75 C-28.77054688 74.38495605 -28.54109375 73.76991211 -28.3046875 73.13623047 C-22.3239565 56.97264772 -18.89042843 40.10443112 -15.18579102 23.30859375 C-14.92596436 22.1484375 -14.6661377 20.98828125 -14.3984375 19.79296875 C-14.16946777 18.75809326 -13.94049805 17.72321777 -13.70458984 16.65698242 C-11.80265436 9.48485357 -6.47345257 5.5465979 -1 1 C-0.67 0.67 -0.34 0.34 0 0 Z " fill="#0D0B0B" transform="translate(1416,260)"/>
</svg>
